<svg width="60" height="60" viewBox="0 0 60 60" fill="none" xmlns="http://www.w3.org/2000/svg">
<rect x="2.5" y="2.5" width="55" height="55" rx="14.1667" fill="#BABABA"/>
<rect x="2.5" y="2.5" width="55" height="55" rx="14.1667" fill="url(#paint0_linear_2001_72)"/>
<rect x="2.5" y="2.5" width="55" height="55" rx="14.1667" stroke="#BABABA" stroke-width="5"/>
<path d="M25.6929 44.5992H27.8553V35.9276L21.6066 41.9517C22.1371 42.5082 22.6497 43.0493 23.1929 43.6236L14.5254 45.7629L17.0635 37.2437L18.5863 38.8215L24.6244 33.0031H16.2487V35.2898L8.5 30.752L16.2386 26.4327V28.5873H24.736L18.764 22.5225L17.2614 24.1968L17.132 24.1231L14.9213 15.5023L23.3706 17.9414L21.8858 19.4812L27.7766 25.4672V17.0827H25.4924L29.9873 9.33331C31.4467 11.9274 32.8832 14.4758 34.3426 17.0649H32.198V25.2131L37.7208 19.2372L36.0381 17.6645L44.5812 15.0246C43.8959 17.9211 43.2208 20.7693 42.533 23.6633L40.9213 22.2023L34.9797 28.633H43.7437V26.3463L51.5 30.8587L43.7716 35.1933V33.0489H35.2437L41.368 38.9765L42.8579 37.3834L45.1421 46.0983L36.6447 43.682C37.0964 43.2145 37.5279 42.7572 37.9721 42.3176C38.1168 42.1753 38.1117 42.0915 37.9721 41.9517C36.0871 40.0614 34.2047 38.1677 32.3249 36.2706C32.2953 36.2469 32.2639 36.2257 32.231 36.207V44.5636H34.5761L30.1244 52.3333L25.6929 44.5992Z" fill="white"/>
<defs>
<linearGradient id="paint0_linear_2001_72" x1="31.7391" y1="60" x2="31.7391" y2="-16.6667" gradientUnits="userSpaceOnUse">
<stop offset="0.415" stop-color="#BABABA"/>
<stop offset="1" stop-color="white"/>
</linearGradient>
</defs>
</svg>
