<svg width="60" height="60" viewBox="0 0 60 60" fill="none" xmlns="http://www.w3.org/2000/svg">
<rect x="2.5" y="2.5" width="55" height="55" rx="14.1667" fill="#BABABA"/>
<rect x="2.5" y="2.5" width="55" height="55" rx="14.1667" fill="url(#paint0_linear_54_74)"/>
<rect x="2.5" y="2.5" width="55" height="55" rx="14.1667" stroke="#BABABA" stroke-width="5"/>
<path d="M49.9993 30.8528C50.0607 41.7778 40.9431 50.8889 29.9383 50.8331C24.6435 50.7956 19.5779 48.6693 15.8438 44.9168C12.1097 41.1644 10.0094 36.0897 10 30.797C10 19.8022 19.0227 10.8222 30.0527 10.8334C41.1888 10.8418 50.0887 20.0841 49.9993 30.8528ZM30.0025 34.8377C27.7831 34.8377 25.5665 34.8377 23.3499 34.8377C23.2272 34.8195 23.1021 34.845 22.9964 34.9098C22.8908 34.9746 22.8113 35.0746 22.772 35.1921C21.7726 37.3743 20.7536 39.5481 19.7374 41.722C19.3745 42.5061 19.3717 42.5061 20.0417 43.0391C21.6933 44.3908 23.6051 45.3889 25.6585 45.9717C27.7119 46.5544 29.8632 46.7094 31.979 46.4268C35.0979 46.0635 38.0316 44.757 40.3875 42.6819C40.5383 42.5536 40.6081 42.4531 40.5076 42.2382C39.3909 39.8551 38.2742 37.4682 37.1576 35.0777C37.1275 34.9965 37.0701 34.9284 36.9952 34.8851C36.9202 34.8418 36.8325 34.826 36.7472 34.8405C34.5027 34.8423 32.2544 34.8414 30.0025 34.8377ZM32.6713 15.3038C36.3396 23.1676 39.9632 30.9309 43.584 38.7026L43.6873 38.6859C46.3646 33.5066 46.5488 28.2743 43.7013 23.1034C41.3256 18.806 37.5735 16.3029 32.6713 15.315V15.3038ZM16.312 38.6803L16.4153 38.697L27.2834 15.3931L27.2052 15.3262C22.3253 16.3196 18.5342 18.8981 16.178 23.3239C13.4589 28.4445 13.6711 33.6043 16.312 38.6914V38.6803ZM29.9913 19.7045L24.9495 30.543H35.047C33.3637 26.9376 31.6998 23.3657 29.9997 19.7185L29.9913 19.7045Z" fill="white"/>
<defs>
<linearGradient id="paint0_linear_54_74" x1="31.7391" y1="60" x2="31.7391" y2="-16.6667" gradientUnits="userSpaceOnUse">
<stop offset="0.415" stop-color="#BABABA"/>
<stop offset="1" stop-color="white"/>
</linearGradient>
</defs>
</svg>
